<?xml version="1.0" standalone="no"?>
<!DOCTYPE svg PUBLIC "-//W3C//DTD SVG 20010904//EN"
 "http://www.w3.org/TR/2001/REC-SVG-20010904/DTD/svg10.dtd">
<svg version="1.0" xmlns="http://www.w3.org/2000/svg"
 width="194.000000pt" height="132.000000pt" viewBox="0 0 194.000000 132.000000"
 preserveAspectRatio="xMidYMid meet">
<metadata>
Created by potrace 1.10, written by Peter Selinger 2001-2011
</metadata>
<g transform="translate(0.000000,132.000000) scale(0.100000,-0.100000)"
fill="#000000" stroke="none">
<path d="M231 1181 c-14 -4 -26 -11 -28 -17 -4 -12 76 -69 85 -60 3 3 1 6 -5
6 -5 0 -9 10 -8 23 1 15 8 21 21 19 32 -5 65 -25 60 -37 -2 -6 6 -12 17 -13
12 0 23 -6 25 -12 2 -5 13 -10 23 -10 11 0 17 -4 14 -10 -3 -6 5 -10 19 -10
14 0 31 -9 39 -21 11 -15 16 -17 20 -7 4 10 9 9 21 -6 8 -10 19 -15 24 -12 6
3 13 -1 16 -10 3 -8 10 -13 15 -10 5 4 11 1 13 -5 2 -6 17 -9 33 -7 l30 3 -40
25 c-22 14 -80 44 -129 67 -49 23 -109 56 -134 74 -44 32 -86 41 -131 30z"/>
<path d="M245 1089 c-8 -12 -9 -12 33 -32 25 -12 39 -13 62 -6 34 12 48 6 128
-58 65 -54 144 -99 136 -79 -3 7 -17 19 -32 27 -15 8 -54 35 -87 60 -79 61
-96 69 -144 69 -22 0 -43 5 -46 10 -4 6 -11 8 -16 5 -5 -4 -9 -1 -9 4 0 14
-17 14 -25 0z"/>
<path d="M651 955 c-14 -14 -23 -26 -20 -27 2 -2 38 -21 79 -42 78 -40 110
-63 110 -78 0 -14 -25 -9 -46 10 -10 10 -50 35 -87 55 -65 35 -68 36 -65 15 2
-14 25 -37 63 -63 l60 -41 -3 -57 c-2 -49 0 -56 15 -50 13 5 15 2 10 -11 -4
-10 -7 -20 -7 -22 0 -3 -4 -2 -10 1 -14 9 -13 -228 1 -242 6 -6 9 -21 7 -34
l-5 -24 -10 24 c-8 21 -11 22 -16 7 -5 -11 8 -31 41 -65 82 -86 224 -111 316
-57 57 33 64 48 44 90 -12 24 -14 54 -10 129 4 90 11 112 27 87 3 -5 13 -10
22 -10 12 0 13 3 4 14 -14 16 3 72 25 80 25 10 15 21 -53 61 -76 43 -103 64
-103 78 0 5 16 -5 35 -22 20 -17 41 -31 48 -31 12 0 -24 34 -72 67 -22 16 -24
16 -40 -4 -26 -33 -93 -73 -122 -73 -38 0 -61 38 -53 90 9 53 24 64 60 46 16
-8 44 -20 62 -27 27 -10 30 -14 20 -27 -11 -13 -10 -14 10 -3 12 6 22 15 22
19 0 11 -35 30 -95 53 -30 11 -76 35 -102 53 -62 42 -93 59 -93 49 0 -4 27
-24 60 -42 33 -19 60 -39 60 -44 0 -4 -19 4 -42 18 -24 14 -58 34 -75 42 -18
9 -33 20 -33 25 0 14 -14 8 -39 -17z m170 -208 c18 -31 73 -62 91 -51 5 4 20
2 31 -4 12 -5 42 -18 67 -28 25 -10 59 -29 77 -43 28 -22 30 -27 18 -45 -15
-24 -27 -214 -14 -222 15 -9 10 -64 -6 -64 -7 0 -18 -8 -23 -17 -8 -13 -25
-17 -78 -17 -57 -1 -80 4 -129 28 -33 16 -64 36 -69 44 -13 23 -19 182 -6 182
6 0 13 -6 16 -14 7 -19 40 -26 53 -13 6 6 31 12 57 13 53 3 70 14 77 52 8 44
-6 50 -19 7 -8 -31 -16 -41 -35 -42 -36 -4 -57 18 -60 62 -4 39 -3 40 26 39
17 -1 40 -5 53 -9 17 -6 21 -4 17 8 -4 9 -14 13 -27 9 -17 -4 -19 -2 -13 19 3
13 3 20 -2 14 -4 -5 -21 -17 -38 -25 -16 -8 -32 -26 -35 -38 -6 -29 -13 -31
-36 -10 -11 9 -23 18 -29 20 -5 2 -8 8 -6 13 2 6 3 17 3 25 -9 108 -8 137 6
137 8 0 23 -14 33 -30z m195 -30 c63 -37 144 -93 144 -99 0 -15 -22 -8 -63 20
-23 16 -64 38 -92 49 -27 12 -51 26 -53 32 -5 15 38 14 64 -2z m89 -14 c19 -9
35 -20 35 -25 0 -12 -17 -10 -32 5 -7 7 -22 18 -33 25 -30 17 -10 14 30 -5z
m-287 -140 c44 -29 56 -58 27 -70 -20 -7 -55 24 -55 49 0 10 -5 18 -11 18 -5
0 -7 5 -4 10 8 13 11 13 43 -7z"/>
<path d="M1166 712 c5 -4 26 -21 47 -36 20 -15 35 -31 32 -36 -3 -4 2 -10 10
-14 8 -3 15 -11 15 -19 0 -7 9 -13 20 -14 11 -1 38 -16 59 -32 21 -17 44 -31
49 -31 6 0 18 -10 26 -22 9 -12 16 -19 16 -15 0 5 14 0 30 -10 28 -16 29 -18
10 -25 -25 -9 -52 0 -43 15 3 5 2 8 -3 4 -5 -3 -27 3 -48 14 -21 10 -44 16
-50 12 -6 -3 -8 -3 -4 2 11 12 -92 56 -122 52 -23 -3 -23 -4 -5 -11 11 -4 52
-23 90 -41 39 -18 94 -43 123 -55 44 -20 52 -27 52 -51 0 -18 9 -32 26 -44 14
-9 28 -14 31 -12 4 5 -15 45 -27 57 -3 3 -11 15 -18 28 -11 20 -10 22 8 22 29
0 120 -42 120 -55 0 -21 -12 -24 -51 -10 -50 18 -49 12 1 -20 41 -26 65 -25
87 4 23 29 13 40 -64 77 -43 21 -103 56 -133 79 -30 23 -66 48 -80 54 -51 26
-120 76 -120 88 0 7 -18 22 -40 33 -40 21 -61 26 -44 12z"/>
</g>
</svg>
